<svg width="741" height="150" viewBox="0 0 741 150" fill="none" xmlns="http://www.w3.org/2000/svg">
<path d="M4.32 55V2.548H23.616C27.24 2.548 30.324 2.884 32.868 3.556C35.412 4.228 37.488 5.176 39.096 6.4C40.704 7.624 41.868 9.112 42.588 10.864C43.332 12.616 43.704 14.572 43.704 16.732C43.704 17.908 43.536 19.048 43.2 20.152C42.864 21.232 42.336 22.252 41.616 23.212C40.896 24.172 39.972 25.048 38.844 25.84C37.716 26.608 36.36 27.28 34.776 27.856C38.232 28.696 40.788 30.064 42.444 31.96C44.1 33.832 44.928 36.244 44.928 39.196C44.928 41.428 44.496 43.504 43.632 45.424C42.768 47.344 41.496 49.024 39.816 50.464C38.16 51.88 36.108 52.996 33.66 53.812C31.212 54.604 28.416 55 25.272 55H4.32ZM16.488 32.752V45.82H25.056C26.664 45.82 27.972 45.616 28.98 45.208C30.012 44.8 30.816 44.272 31.392 43.624C31.968 42.976 32.364 42.244 32.58 41.428C32.796 40.612 32.904 39.784 32.904 38.944C32.904 37.984 32.772 37.12 32.508 36.352C32.268 35.584 31.836 34.936 31.212 34.408C30.612 33.88 29.808 33.472 28.8 33.184C27.792 32.896 26.52 32.752 24.984 32.752H16.488ZM16.488 24.616H22.824C24.168 24.616 25.38 24.52 26.46 24.328C27.54 24.136 28.452 23.8 29.196 23.32C29.964 22.84 30.54 22.18 30.924 21.34C31.332 20.5 31.536 19.444 31.536 18.172C31.536 16.924 31.38 15.892 31.068 15.076C30.756 14.236 30.276 13.564 29.628 13.06C28.98 12.556 28.152 12.196 27.144 11.98C26.16 11.764 24.984 11.656 23.616 11.656H16.488V24.616ZM68.554 17.092C71.026 17.092 73.282 17.476 75.322 18.244C77.386 19.012 79.15 20.128 80.614 21.592C82.102 23.056 83.254 24.856 84.07 26.992C84.91 29.104 85.33 31.504 85.33 34.192C85.33 35.032 85.294 35.716 85.222 36.244C85.15 36.772 85.018 37.192 84.826 37.504C84.634 37.816 84.37 38.032 84.034 38.152C83.722 38.272 83.314 38.332 82.81 38.332H61.282C61.642 41.452 62.59 43.72 64.126 45.136C65.662 46.528 67.642 47.224 70.066 47.224C71.362 47.224 72.478 47.068 73.414 46.756C74.35 46.444 75.178 46.096 75.898 45.712C76.642 45.328 77.314 44.98 77.914 44.668C78.538 44.356 79.186 44.2 79.858 44.2C80.746 44.2 81.418 44.524 81.874 45.172L85.114 49.168C83.962 50.488 82.714 51.568 81.37 52.408C80.05 53.224 78.682 53.872 77.266 54.352C75.874 54.808 74.47 55.12 73.054 55.288C71.662 55.48 70.33 55.576 69.058 55.576C66.442 55.576 63.982 55.156 61.678 54.316C59.398 53.452 57.394 52.18 55.666 50.5C53.962 48.82 52.606 46.732 51.598 44.236C50.614 41.74 50.122 38.836 50.122 35.524C50.122 33.028 50.542 30.664 51.382 28.432C52.246 26.2 53.47 24.244 55.054 22.564C56.662 20.884 58.594 19.552 60.85 18.568C63.13 17.584 65.698 17.092 68.554 17.092ZM68.77 24.796C66.634 24.796 64.966 25.408 63.766 26.632C62.566 27.832 61.774 29.572 61.39 31.852H75.322C75.322 30.964 75.202 30.1 74.962 29.26C74.746 28.42 74.374 27.676 73.846 27.028C73.342 26.356 72.67 25.816 71.83 25.408C70.99 25 69.97 24.796 68.77 24.796ZM115.558 25.84C115.27 26.296 114.958 26.62 114.622 26.812C114.31 27.004 113.902 27.1 113.398 27.1C112.87 27.1 112.342 26.992 111.814 26.776C111.286 26.536 110.71 26.284 110.086 26.02C109.486 25.756 108.802 25.516 108.034 25.3C107.266 25.06 106.39 24.94 105.406 24.94C103.99 24.94 102.898 25.216 102.13 25.768C101.386 26.296 101.014 27.04 101.014 28C101.014 28.696 101.254 29.272 101.734 29.728C102.238 30.184 102.898 30.592 103.714 30.952C104.53 31.288 105.454 31.612 106.486 31.924C107.518 32.236 108.574 32.584 109.654 32.968C110.734 33.352 111.79 33.808 112.822 34.336C113.854 34.84 114.778 35.476 115.594 36.244C116.41 36.988 117.058 37.9 117.538 38.98C118.042 40.06 118.294 41.356 118.294 42.868C118.294 44.716 117.958 46.42 117.286 47.98C116.614 49.54 115.606 50.884 114.262 52.012C112.942 53.14 111.298 54.016 109.33 54.64C107.386 55.264 105.142 55.576 102.598 55.576C101.326 55.576 100.054 55.456 98.7821 55.216C97.5101 54.976 96.2741 54.652 95.0741 54.244C93.8981 53.836 92.8061 53.356 91.7981 52.804C90.7901 52.228 89.9261 51.616 89.2061 50.968L91.7981 46.864C92.1101 46.384 92.4821 46.012 92.9141 45.748C93.3461 45.46 93.9101 45.316 94.6061 45.316C95.2541 45.316 95.8301 45.46 96.3341 45.748C96.8621 46.036 97.4261 46.348 98.0261 46.684C98.6261 47.02 99.3221 47.332 100.114 47.62C100.93 47.908 101.95 48.052 103.174 48.052C104.038 48.052 104.77 47.968 105.37 47.8C105.97 47.608 106.45 47.356 106.81 47.044C107.17 46.732 107.434 46.384 107.602 46C107.77 45.616 107.854 45.22 107.854 44.812C107.854 44.068 107.602 43.456 107.098 42.976C106.594 42.496 105.934 42.088 105.118 41.752C104.302 41.392 103.366 41.068 102.31 40.78C101.278 40.468 100.222 40.12 99.1421 39.736C98.0621 39.352 96.9941 38.896 95.9381 38.368C94.9061 37.816 93.9821 37.132 93.1661 36.316C92.3501 35.476 91.6901 34.456 91.1861 33.256C90.6821 32.056 90.4301 30.604 90.4301 28.9C90.4301 27.316 90.7301 25.816 91.3301 24.4C91.9541 22.96 92.8781 21.7 94.1021 20.62C95.3261 19.54 96.8621 18.688 98.7101 18.064C100.558 17.416 102.718 17.092 105.19 17.092C106.534 17.092 107.83 17.212 109.078 17.452C110.35 17.692 111.538 18.028 112.642 18.46C113.746 18.892 114.754 19.408 115.666 20.008C116.578 20.584 117.382 21.22 118.078 21.916L115.558 25.84ZM138.549 55.576C136.773 55.576 135.201 55.324 133.833 54.82C132.489 54.292 131.349 53.56 130.413 52.624C129.501 51.664 128.805 50.512 128.325 49.168C127.845 47.824 127.605 46.324 127.605 44.668V25.372H124.437C123.861 25.372 123.369 25.192 122.961 24.832C122.553 24.448 122.349 23.896 122.349 23.176V18.82L128.289 17.668L130.485 8.56C130.773 7.408 131.589 6.832 132.933 6.832H138.765V17.74H147.837V25.372H138.765V43.912C138.765 44.776 138.969 45.496 139.377 46.072C139.809 46.624 140.421 46.9 141.213 46.9C141.621 46.9 141.957 46.864 142.221 46.792C142.509 46.696 142.749 46.6 142.941 46.504C143.157 46.384 143.349 46.288 143.517 46.216C143.709 46.12 143.925 46.072 144.165 46.072C144.501 46.072 144.765 46.156 144.957 46.324C145.173 46.468 145.389 46.708 145.605 47.044L148.989 52.336C147.549 53.416 145.929 54.232 144.129 54.784C142.329 55.312 140.469 55.576 138.549 55.576ZM33.552 107.204C33.192 107.78 32.808 108.212 32.4 108.5C32.016 108.788 31.512 108.932 30.888 108.932C30.336 108.932 29.736 108.764 29.088 108.428C28.464 108.068 27.744 107.672 26.928 107.24C26.136 106.808 25.224 106.424 24.192 106.088C23.16 105.728 21.984 105.548 20.664 105.548C18.384 105.548 16.68 106.04 15.552 107.024C14.448 107.984 13.896 109.292 13.896 110.948C13.896 112.004 14.232 112.88 14.904 113.576C15.576 114.272 16.452 114.872 17.532 115.376C18.636 115.88 19.884 116.348 21.276 116.78C22.692 117.188 24.132 117.656 25.596 118.184C27.06 118.688 28.488 119.288 29.88 119.984C31.296 120.68 32.544 121.568 33.624 122.648C34.728 123.728 35.616 125.048 36.288 126.608C36.96 128.144 37.296 130.004 37.296 132.188C37.296 134.612 36.876 136.88 36.036 138.992C35.196 141.104 33.972 142.952 32.364 144.536C30.78 146.096 28.812 147.332 26.46 148.244C24.132 149.132 21.48 149.576 18.504 149.576C16.872 149.576 15.204 149.408 13.5 149.072C11.82 148.736 10.188 148.268 8.604 147.668C7.02 147.044 5.532 146.312 4.14 145.472C2.748 144.632 1.536 143.696 0.504 142.664L4.104 136.976C4.368 136.544 4.74 136.196 5.22 135.932C5.7 135.668 6.216 135.536 6.768 135.536C7.488 135.536 8.208 135.764 8.928 136.22C9.672 136.676 10.5 137.18 11.412 137.732C12.348 138.284 13.416 138.788 14.616 139.244C15.816 139.7 17.232 139.928 18.864 139.928C21.072 139.928 22.788 139.448 24.012 138.488C25.236 137.504 25.848 135.956 25.848 133.844C25.848 132.62 25.512 131.624 24.84 130.856C24.168 130.088 23.28 129.452 22.176 128.948C21.096 128.444 19.86 128 18.468 127.616C17.076 127.232 15.648 126.812 14.184 126.356C12.72 125.876 11.292 125.3 9.9 124.628C8.508 123.932 7.26 123.032 6.156 121.928C5.076 120.8 4.2 119.408 3.528 117.752C2.856 116.072 2.52 114.008 2.52 111.56C2.52 109.592 2.916 107.672 3.708 105.8C4.5 103.928 5.664 102.26 7.2 100.796C8.736 99.332 10.62 98.168 12.852 97.304C15.084 96.416 17.64 95.972 20.52 95.972C22.128 95.972 23.688 96.104 25.2 96.368C26.736 96.608 28.188 96.98 29.556 97.484C30.924 97.964 32.196 98.552 33.372 99.248C34.572 99.92 35.64 100.688 36.576 101.552L33.552 107.204ZM60.9754 111.092C63.8074 111.092 66.3874 111.536 68.7154 112.424C71.0434 113.312 73.0354 114.584 74.6914 116.24C76.3714 117.896 77.6674 119.912 78.5794 122.288C79.5154 124.64 79.9834 127.292 79.9834 130.244C79.9834 133.22 79.5154 135.908 78.5794 138.308C77.6674 140.684 76.3714 142.712 74.6914 144.392C73.0354 146.048 71.0434 147.332 68.7154 148.244C66.3874 149.132 63.8074 149.576 60.9754 149.576C58.1194 149.576 55.5154 149.132 53.1634 148.244C50.8354 147.332 48.8194 146.048 47.1154 144.392C45.4354 142.712 44.1274 140.684 43.1914 138.308C42.2794 135.908 41.8234 133.22 41.8234 130.244C41.8234 127.292 42.2794 124.64 43.1914 122.288C44.1274 119.912 45.4354 117.896 47.1154 116.24C48.8194 114.584 50.8354 113.312 53.1634 112.424C55.5154 111.536 58.1194 111.092 60.9754 111.092ZM60.9754 141.296C63.5434 141.296 65.4274 140.396 66.6274 138.596C67.8514 136.772 68.4634 134.012 68.4634 130.316C68.4634 126.62 67.8514 123.872 66.6274 122.072C65.4274 120.272 63.5434 119.372 60.9754 119.372C58.3354 119.372 56.4034 120.272 55.1794 122.072C53.9554 123.872 53.3434 126.62 53.3434 130.316C53.3434 134.012 53.9554 136.772 55.1794 138.596C56.4034 140.396 58.3354 141.296 60.9754 141.296ZM98.6291 95.108V149H87.4691V95.108H98.6291ZM119.08 111.668V135.356C119.08 137.204 119.5 138.632 120.34 139.64C121.18 140.648 122.416 141.152 124.048 141.152C125.272 141.152 126.412 140.9 127.468 140.396C128.548 139.892 129.592 139.184 130.6 138.272V111.668H141.76V149H134.848C133.456 149 132.544 148.376 132.112 147.128L131.428 144.968C130.708 145.664 129.964 146.3 129.196 146.876C128.428 147.428 127.6 147.908 126.712 148.316C125.848 148.7 124.912 149 123.904 149.216C122.896 149.456 121.792 149.576 120.592 149.576C118.552 149.576 116.74 149.228 115.156 148.532C113.596 147.812 112.276 146.816 111.196 145.544C110.116 144.272 109.3 142.772 108.748 141.044C108.196 139.316 107.92 137.42 107.92 135.356V111.668H119.08ZM164.51 149.576C162.734 149.576 161.162 149.324 159.794 148.82C158.45 148.292 157.31 147.56 156.374 146.624C155.462 145.664 154.766 144.512 154.286 143.168C153.806 141.824 153.566 140.324 153.566 138.668V119.372H150.398C149.822 119.372 149.33 119.192 148.922 118.832C148.514 118.448 148.31 117.896 148.31 117.176V112.82L154.25 111.668L156.446 102.56C156.734 101.408 157.55 100.832 158.894 100.832H164.726V111.74H173.798V119.372H164.726V137.912C164.726 138.776 164.93 139.496 165.338 140.072C165.77 140.624 166.382 140.9 167.174 140.9C167.582 140.9 167.918 140.864 168.182 140.792C168.47 140.696 168.71 140.6 168.902 140.504C169.118 140.384 169.31 140.288 169.478 140.216C169.67 140.12 169.886 140.072 170.126 140.072C170.462 140.072 170.726 140.156 170.918 140.324C171.134 140.468 171.35 140.708 171.566 141.044L174.95 146.336C173.51 147.416 171.89 148.232 170.09 148.784C168.29 149.312 166.43 149.576 164.51 149.576ZM192.754 111.668V149H181.594V111.668H192.754ZM194.05 101.444C194.05 102.332 193.87 103.172 193.51 103.964C193.15 104.732 192.658 105.416 192.034 106.016C191.41 106.592 190.678 107.06 189.838 107.42C189.022 107.756 188.146 107.924 187.21 107.924C186.298 107.924 185.446 107.756 184.654 107.42C183.862 107.06 183.154 106.592 182.53 106.016C181.93 105.416 181.45 104.732 181.09 103.964C180.754 103.172 180.586 102.332 180.586 101.444C180.586 100.532 180.754 99.68 181.09 98.888C181.45 98.096 181.93 97.4 182.53 96.8C183.154 96.2 183.862 95.732 184.654 95.396C185.446 95.06 186.298 94.892 187.21 94.892C188.146 94.892 189.022 95.06 189.838 95.396C190.678 95.732 191.41 96.2 192.034 96.8C192.658 97.4 193.15 98.096 193.51 98.888C193.87 99.68 194.05 100.532 194.05 101.444ZM219.397 111.092C222.229 111.092 224.809 111.536 227.137 112.424C229.465 113.312 231.457 114.584 233.113 116.24C234.793 117.896 236.089 119.912 237.001 122.288C237.937 124.64 238.405 127.292 238.405 130.244C238.405 133.22 237.937 135.908 237.001 138.308C236.089 140.684 234.793 142.712 233.113 144.392C231.457 146.048 229.465 147.332 227.137 148.244C224.809 149.132 222.229 149.576 219.397 149.576C216.541 149.576 213.937 149.132 211.585 148.244C209.257 147.332 207.241 146.048 205.537 144.392C203.857 142.712 202.549 140.684 201.613 138.308C200.701 135.908 200.245 133.22 200.245 130.244C200.245 127.292 200.701 124.64 201.613 122.288C202.549 119.912 203.857 117.896 205.537 116.24C207.241 114.584 209.257 113.312 211.585 112.424C213.937 111.536 216.541 111.092 219.397 111.092ZM219.397 141.296C221.965 141.296 223.849 140.396 225.049 138.596C226.273 136.772 226.885 134.012 226.885 130.316C226.885 126.62 226.273 123.872 225.049 122.072C223.849 120.272 221.965 119.372 219.397 119.372C216.757 119.372 214.825 120.272 213.601 122.072C212.377 123.872 211.765 126.62 211.765 130.316C211.765 134.012 212.377 136.772 213.601 138.596C214.825 140.396 216.757 141.296 219.397 141.296ZM245.531 149V111.668H252.443C253.139 111.668 253.715 111.824 254.171 112.136C254.651 112.448 254.987 112.916 255.179 113.54L255.827 115.7C256.547 115.028 257.291 114.404 258.059 113.828C258.827 113.252 259.643 112.772 260.507 112.388C261.395 111.98 262.343 111.668 263.351 111.452C264.383 111.212 265.499 111.092 266.699 111.092C268.739 111.092 270.539 111.452 272.099 112.172C273.683 112.868 275.015 113.852 276.095 115.124C277.175 116.372 277.991 117.872 278.543 119.624C279.095 121.352 279.371 123.236 279.371 125.276V149H268.211V125.276C268.211 123.452 267.791 122.036 266.951 121.028C266.111 119.996 264.875 119.48 263.243 119.48C262.019 119.48 260.867 119.744 259.787 120.272C258.707 120.8 257.675 121.508 256.691 122.396V149H245.531ZM311.121 119.84C310.833 120.296 310.521 120.62 310.185 120.812C309.873 121.004 309.465 121.1 308.961 121.1C308.433 121.1 307.905 120.992 307.377 120.776C306.849 120.536 306.273 120.284 305.649 120.02C305.049 119.756 304.365 119.516 303.597 119.3C302.829 119.06 301.953 118.94 300.969 118.94C299.553 118.94 298.461 119.216 297.693 119.768C296.949 120.296 296.577 121.04 296.577 122C296.577 122.696 296.817 123.272 297.297 123.728C297.801 124.184 298.461 124.592 299.277 124.952C300.093 125.288 301.017 125.612 302.049 125.924C303.081 126.236 304.137 126.584 305.217 126.968C306.297 127.352 307.353 127.808 308.385 128.336C309.417 128.84 310.341 129.476 311.157 130.244C311.973 130.988 312.621 131.9 313.101 132.98C313.605 134.06 313.857 135.356 313.857 136.868C313.857 138.716 313.521 140.42 312.849 141.98C312.177 143.54 311.169 144.884 309.825 146.012C308.505 147.14 306.861 148.016 304.893 148.64C302.949 149.264 300.705 149.576 298.161 149.576C296.889 149.576 295.617 149.456 294.345 149.216C293.073 148.976 291.837 148.652 290.637 148.244C289.461 147.836 288.369 147.356 287.361 146.804C286.353 146.228 285.489 145.616 284.769 144.968L287.361 140.864C287.673 140.384 288.045 140.012 288.477 139.748C288.909 139.46 289.473 139.316 290.169 139.316C290.817 139.316 291.393 139.46 291.897 139.748C292.425 140.036 292.989 140.348 293.589 140.684C294.189 141.02 294.885 141.332 295.677 141.62C296.493 141.908 297.513 142.052 298.737 142.052C299.601 142.052 300.333 141.968 300.933 141.8C301.533 141.608 302.013 141.356 302.373 141.044C302.733 140.732 302.997 140.384 303.165 140C303.333 139.616 303.417 139.22 303.417 138.812C303.417 138.068 303.165 137.456 302.661 136.976C302.157 136.496 301.497 136.088 300.681 135.752C299.865 135.392 298.929 135.068 297.873 134.78C296.841 134.468 295.785 134.12 294.705 133.736C293.625 133.352 292.557 132.896 291.501 132.368C290.469 131.816 289.545 131.132 288.729 130.316C287.913 129.476 287.253 128.456 286.749 127.256C286.245 126.056 285.993 124.604 285.993 122.9C285.993 121.316 286.293 119.816 286.893 118.4C287.517 116.96 288.441 115.7 289.665 114.62C290.889 113.54 292.425 112.688 294.273 112.064C296.121 111.416 298.281 111.092 300.753 111.092C302.097 111.092 303.393 111.212 304.641 111.452C305.913 111.692 307.101 112.028 308.205 112.46C309.309 112.892 310.317 113.408 311.229 114.008C312.141 114.584 312.945 115.22 313.641 115.916L311.121 119.84ZM337.585 149V119.336L335.137 118.832C334.297 118.64 333.613 118.34 333.085 117.932C332.581 117.524 332.329 116.924 332.329 116.132V111.74H337.585V109.616C337.585 107.48 337.921 105.548 338.593 103.82C339.289 102.092 340.273 100.616 341.545 99.392C342.841 98.168 344.413 97.22 346.261 96.548C348.109 95.876 350.209 95.54 352.561 95.54C353.473 95.54 354.313 95.6 355.081 95.72C355.873 95.816 356.689 95.984 357.529 96.224L357.313 101.66C357.289 102.044 357.181 102.368 356.989 102.632C356.821 102.872 356.605 103.076 356.341 103.244C356.077 103.388 355.777 103.496 355.441 103.568C355.129 103.64 354.817 103.676 354.505 103.676C353.521 103.676 352.645 103.772 351.877 103.964C351.109 104.156 350.461 104.504 349.933 105.008C349.429 105.488 349.045 106.136 348.781 106.952C348.517 107.744 348.385 108.752 348.385 109.976V111.74H357.169V119.372H348.745V149H337.585ZM379.647 111.092C382.479 111.092 385.059 111.536 387.387 112.424C389.715 113.312 391.707 114.584 393.363 116.24C395.043 117.896 396.339 119.912 397.251 122.288C398.187 124.64 398.655 127.292 398.655 130.244C398.655 133.22 398.187 135.908 397.251 138.308C396.339 140.684 395.043 142.712 393.363 144.392C391.707 146.048 389.715 147.332 387.387 148.244C385.059 149.132 382.479 149.576 379.647 149.576C376.791 149.576 374.187 149.132 371.835 148.244C369.507 147.332 367.491 146.048 365.787 144.392C364.107 142.712 362.799 140.684 361.863 138.308C360.951 135.908 360.495 133.22 360.495 130.244C360.495 127.292 360.951 124.64 361.863 122.288C362.799 119.912 364.107 117.896 365.787 116.24C367.491 114.584 369.507 113.312 371.835 112.424C374.187 111.536 376.791 111.092 379.647 111.092ZM379.647 141.296C382.215 141.296 384.099 140.396 385.299 138.596C386.523 136.772 387.135 134.012 387.135 130.316C387.135 126.62 386.523 123.872 385.299 122.072C384.099 120.272 382.215 119.372 379.647 119.372C377.007 119.372 375.075 120.272 373.851 122.072C372.627 123.872 372.015 126.62 372.015 130.316C372.015 134.012 372.627 136.772 373.851 138.596C375.075 140.396 377.007 141.296 379.647 141.296ZM405.781 149V111.668H412.405C412.957 111.668 413.413 111.716 413.773 111.812C414.157 111.908 414.469 112.064 414.709 112.28C414.973 112.472 415.165 112.736 415.285 113.072C415.429 113.408 415.549 113.816 415.645 114.296L416.257 117.788C417.625 115.676 419.161 114.008 420.865 112.784C422.569 111.56 424.429 110.948 426.445 110.948C428.149 110.948 429.517 111.356 430.549 112.172L429.109 120.38C429.013 120.884 428.821 121.244 428.533 121.46C428.245 121.652 427.861 121.748 427.381 121.748C426.973 121.748 426.493 121.7 425.941 121.604C425.389 121.484 424.693 121.424 423.853 121.424C420.925 121.424 418.621 122.984 416.941 126.104V149H405.781ZM477.581 129.056V149H465.413V129.056L446.405 96.548H457.133C458.189 96.548 459.029 96.8 459.653 97.304C460.277 97.784 460.781 98.408 461.165 99.176L468.581 114.44C469.181 115.664 469.733 116.792 470.237 117.824C470.741 118.856 471.185 119.876 471.569 120.884C471.929 119.852 472.361 118.82 472.865 117.788C473.369 116.756 473.909 115.64 474.485 114.44L481.829 99.176C481.973 98.864 482.165 98.552 482.405 98.24C482.669 97.928 482.957 97.652 483.269 97.412C483.605 97.148 483.977 96.944 484.385 96.8C484.817 96.632 485.285 96.548 485.789 96.548H496.589L477.581 129.056ZM512.038 111.092C514.87 111.092 517.45 111.536 519.778 112.424C522.106 113.312 524.098 114.584 525.754 116.24C527.434 117.896 528.73 119.912 529.642 122.288C530.578 124.64 531.046 127.292 531.046 130.244C531.046 133.22 530.578 135.908 529.642 138.308C528.73 140.684 527.434 142.712 525.754 144.392C524.098 146.048 522.106 147.332 519.778 148.244C517.45 149.132 514.87 149.576 512.038 149.576C509.182 149.576 506.578 149.132 504.226 148.244C501.898 147.332 499.882 146.048 498.178 144.392C496.498 142.712 495.19 140.684 494.254 138.308C493.342 135.908 492.886 133.22 492.886 130.244C492.886 127.292 493.342 124.64 494.254 122.288C495.19 119.912 496.498 117.896 498.178 116.24C499.882 114.584 501.898 113.312 504.226 112.424C506.578 111.536 509.182 111.092 512.038 111.092ZM512.038 141.296C514.606 141.296 516.49 140.396 517.69 138.596C518.914 136.772 519.526 134.012 519.526 130.316C519.526 126.62 518.914 123.872 517.69 122.072C516.49 120.272 514.606 119.372 512.038 119.372C509.398 119.372 507.466 120.272 506.242 122.072C505.018 123.872 504.406 126.62 504.406 130.316C504.406 134.012 505.018 136.772 506.242 138.596C507.466 140.396 509.398 141.296 512.038 141.296ZM548.612 111.668V135.356C548.612 137.204 549.032 138.632 549.872 139.64C550.712 140.648 551.948 141.152 553.58 141.152C554.804 141.152 555.944 140.9 557 140.396C558.08 139.892 559.124 139.184 560.132 138.272V111.668H571.292V149H564.38C562.988 149 562.076 148.376 561.644 147.128L560.96 144.968C560.24 145.664 559.496 146.3 558.728 146.876C557.96 147.428 557.132 147.908 556.244 148.316C555.38 148.7 554.444 149 553.436 149.216C552.428 149.456 551.324 149.576 550.124 149.576C548.084 149.576 546.272 149.228 544.688 148.532C543.128 147.812 541.808 146.816 540.728 145.544C539.648 144.272 538.832 142.772 538.28 141.044C537.728 139.316 537.452 137.42 537.452 135.356V111.668H548.612Z" fill="white"/>
<path d="M199.427 13.204C199.067 13.78 198.683 14.212 198.275 14.5C197.891 14.788 197.387 14.932 196.763 14.932C196.211 14.932 195.611 14.764 194.963 14.428C194.339 14.068 193.619 13.672 192.803 13.24C192.011 12.808 191.099 12.424 190.067 12.088C189.035 11.728 187.859 11.548 186.539 11.548C184.259 11.548 182.555 12.04 181.427 13.024C180.323 13.984 179.771 15.292 179.771 16.948C179.771 18.004 180.107 18.88 180.779 19.576C181.451 20.272 182.327 20.872 183.407 21.376C184.511 21.88 185.759 22.348 187.151 22.78C188.567 23.188 190.007 23.656 191.471 24.184C192.935 24.688 194.363 25.288 195.755 25.984C197.171 26.68 198.419 27.568 199.499 28.648C200.603 29.728 201.491 31.048 202.163 32.608C202.835 34.144 203.171 36.004 203.171 38.188C203.171 40.612 202.751 42.88 201.911 44.992C201.071 47.104 199.847 48.952 198.239 50.536C196.655 52.096 194.687 53.332 192.335 54.244C190.007 55.132 187.355 55.576 184.379 55.576C182.747 55.576 181.079 55.408 179.375 55.072C177.695 54.736 176.063 54.268 174.479 53.668C172.895 53.044 171.407 52.312 170.015 51.472C168.623 50.632 167.411 49.696 166.379 48.664L169.979 42.976C170.243 42.544 170.615 42.196 171.095 41.932C171.575 41.668 172.091 41.536 172.643 41.536C173.363 41.536 174.083 41.764 174.803 42.22C175.547 42.676 176.375 43.18 177.287 43.732C178.223 44.284 179.291 44.788 180.491 45.244C181.691 45.7 183.107 45.928 184.739 45.928C186.947 45.928 188.663 45.448 189.887 44.488C191.111 43.504 191.723 41.956 191.723 39.844C191.723 38.62 191.387 37.624 190.715 36.856C190.043 36.088 189.155 35.452 188.051 34.948C186.971 34.444 185.735 34 184.343 33.616C182.951 33.232 181.523 32.812 180.059 32.356C178.595 31.876 177.167 31.3 175.775 30.628C174.383 29.932 173.135 29.032 172.031 27.928C170.951 26.8 170.075 25.408 169.403 23.752C168.731 22.072 168.395 20.008 168.395 17.56C168.395 15.592 168.791 13.672 169.583 11.8C170.375 9.928 171.539 8.26 173.075 6.796C174.611 5.332 176.495 4.168 178.727 3.304C180.959 2.416 183.515 1.972 186.395 1.972C188.003 1.972 189.563 2.104 191.075 2.368C192.611 2.608 194.063 2.98 195.431 3.484C196.799 3.964 198.071 4.552 199.247 5.248C200.447 5.92 201.515 6.688 202.451 7.552L199.427 13.204ZM243.986 2.548V11.908H222.458V24.148H238.946V33.148H222.458V45.64H243.986V55H210.218V2.548H243.986ZM303.697 28.756C303.697 32.548 303.037 36.076 301.717 39.34C300.421 42.604 298.585 45.448 296.209 47.872C293.833 50.272 290.965 52.156 287.605 53.524C284.269 54.892 280.561 55.576 276.481 55.576C272.401 55.576 268.681 54.892 265.321 53.524C261.961 52.156 259.081 50.272 256.681 47.872C254.305 45.448 252.457 42.604 251.137 39.34C249.841 36.076 249.193 32.548 249.193 28.756C249.193 24.964 249.841 21.436 251.137 18.172C252.457 14.908 254.305 12.076 256.681 9.676C259.081 7.276 261.961 5.392 265.321 4.024C268.681 2.656 272.401 1.972 276.481 1.972C280.561 1.972 284.269 2.668 287.605 4.06C290.965 5.428 293.833 7.312 296.209 9.712C298.585 12.112 300.421 14.944 301.717 18.208C303.037 21.472 303.697 24.988 303.697 28.756ZM291.241 28.756C291.241 26.164 290.905 23.836 290.233 21.772C289.561 19.684 288.589 17.92 287.317 16.48C286.069 15.04 284.533 13.936 282.709 13.168C280.885 12.4 278.809 12.016 276.481 12.016C274.129 12.016 272.029 12.4 270.181 13.168C268.357 13.936 266.809 15.04 265.537 16.48C264.289 17.92 263.329 19.684 262.657 21.772C261.985 23.836 261.649 26.164 261.649 28.756C261.649 31.372 261.985 33.724 262.657 35.812C263.329 37.876 264.289 39.628 265.537 41.068C266.809 42.508 268.357 43.612 270.181 44.38C272.029 45.124 274.129 45.496 276.481 45.496C278.809 45.496 280.885 45.124 282.709 44.38C284.533 43.612 286.069 42.508 287.317 41.068C288.589 39.628 289.561 37.876 290.233 35.812C290.905 33.724 291.241 31.372 291.241 28.756ZM345.021 1.972C347.349 1.972 349.401 2.32 351.177 3.016C352.953 3.688 354.453 4.588 355.677 5.716C356.901 6.82 357.861 8.104 358.557 9.568C359.253 11.032 359.685 12.532 359.853 14.068L352.653 15.508C352.533 15.532 352.425 15.556 352.329 15.58C352.257 15.58 352.173 15.58 352.077 15.58C351.069 15.58 350.325 15.052 349.845 13.996C349.293 12.748 348.645 11.8 347.901 11.152C347.181 10.504 346.221 10.18 345.021 10.18C344.181 10.18 343.449 10.336 342.825 10.648C342.201 10.96 341.673 11.368 341.241 11.872C340.833 12.376 340.521 12.964 340.305 13.636C340.089 14.308 339.981 15.004 339.981 15.724C339.981 16.348 340.029 16.948 340.125 17.524C340.245 18.1 340.425 18.688 340.665 19.288C340.929 19.864 341.277 20.464 341.709 21.088C342.165 21.712 342.741 22.384 343.437 23.104L356.397 36.784C357.045 35.344 357.561 33.844 357.945 32.284C358.329 30.724 358.605 29.104 358.773 27.424C358.821 26.752 359.037 26.224 359.421 25.84C359.829 25.456 360.357 25.264 361.005 25.264H368.061C368.061 28.768 367.593 32.044 366.657 35.092C365.721 38.116 364.389 40.888 362.661 43.408L373.677 55H362.661C362.109 55 361.617 54.976 361.185 54.928C360.753 54.856 360.345 54.748 359.961 54.604C359.601 54.46 359.253 54.256 358.917 53.992C358.581 53.728 358.221 53.392 357.837 52.984L355.569 50.608C353.289 52.192 350.793 53.416 348.081 54.28C345.393 55.144 342.525 55.576 339.477 55.576C337.389 55.576 335.337 55.216 333.321 54.496C331.329 53.776 329.553 52.756 327.993 51.436C326.433 50.092 325.173 48.472 324.213 46.576C323.253 44.68 322.773 42.556 322.773 40.204C322.773 38.62 323.013 37.12 323.493 35.704C323.997 34.288 324.693 32.98 325.581 31.78C326.469 30.556 327.525 29.452 328.749 28.468C329.997 27.46 331.353 26.584 332.817 25.84C331.689 24.088 330.873 22.372 330.369 20.692C329.865 19.012 329.613 17.38 329.613 15.796C329.613 13.924 329.949 12.16 330.621 10.504C331.317 8.824 332.313 7.36 333.609 6.112C334.929 4.84 336.537 3.832 338.433 3.088C340.353 2.344 342.549 1.972 345.021 1.972ZM334.149 39.304C334.149 40.456 334.317 41.5 334.653 42.436C335.013 43.372 335.517 44.176 336.165 44.848C336.813 45.52 337.581 46.048 338.469 46.432C339.381 46.792 340.389 46.972 341.493 46.972C343.101 46.972 344.589 46.768 345.957 46.36C347.349 45.928 348.645 45.328 349.845 44.56L337.785 31.78C336.465 32.86 335.529 34.036 334.977 35.308C334.425 36.58 334.149 37.912 334.149 39.304ZM420.21 31.024C420.69 31.936 421.146 32.884 421.578 33.868C422.034 34.852 422.466 35.86 422.874 36.892C423.282 35.836 423.714 34.816 424.17 33.832C424.626 32.824 425.094 31.852 425.574 30.916L439.038 4.42C439.278 3.964 439.518 3.616 439.758 3.376C440.022 3.112 440.31 2.92 440.622 2.8C440.934 2.68 441.282 2.608 441.666 2.584C442.074 2.56 442.542 2.548 443.07 2.548H452.358V55H441.63V24.832C441.63 23.368 441.702 21.784 441.846 20.08L427.95 47.044C427.518 47.884 426.93 48.52 426.186 48.952C425.466 49.384 424.638 49.6 423.702 49.6H422.046C421.11 49.6 420.27 49.384 419.526 48.952C418.806 48.52 418.23 47.884 417.798 47.044L403.83 20.044C403.926 20.884 403.998 21.724 404.046 22.564C404.094 23.38 404.118 24.136 404.118 24.832V55H393.39V2.548H402.678C403.206 2.548 403.662 2.56 404.046 2.584C404.454 2.608 404.814 2.68 405.126 2.8C405.438 2.92 405.714 3.112 405.954 3.376C406.218 3.616 406.47 3.964 406.71 4.42L420.21 31.024ZM487.807 55C486.751 55 485.947 54.856 485.395 54.568C484.867 54.28 484.423 53.68 484.063 52.768L483.271 50.716C482.335 51.508 481.435 52.204 480.571 52.804C479.707 53.404 478.807 53.92 477.871 54.352C476.959 54.76 475.975 55.06 474.919 55.252C473.887 55.468 472.735 55.576 471.463 55.576C469.759 55.576 468.211 55.36 466.819 54.928C465.427 54.472 464.239 53.812 463.255 52.948C462.295 52.084 461.551 51.016 461.023 49.744C460.495 48.448 460.231 46.96 460.231 45.28C460.231 43.96 460.567 42.604 461.239 41.212C461.911 39.82 463.075 38.56 464.731 37.432C466.387 36.28 468.619 35.32 471.427 34.552C474.235 33.784 477.775 33.352 482.047 33.256V31.672C482.047 29.488 481.591 27.916 480.679 26.956C479.791 25.972 478.519 25.48 476.863 25.48C475.543 25.48 474.463 25.624 473.623 25.912C472.783 26.2 472.027 26.524 471.355 26.884C470.707 27.244 470.071 27.568 469.447 27.856C468.823 28.144 468.079 28.288 467.215 28.288C466.447 28.288 465.787 28.108 465.235 27.748C464.707 27.364 464.287 26.896 463.975 26.344L461.959 22.852C464.215 20.86 466.711 19.384 469.447 18.424C472.207 17.44 475.159 16.948 478.303 16.948C480.559 16.948 482.587 17.32 484.387 18.064C486.211 18.784 487.747 19.804 488.995 21.124C490.267 22.42 491.239 23.968 491.911 25.768C492.583 27.568 492.919 29.536 492.919 31.672V55H487.807ZM474.991 48.196C476.431 48.196 477.691 47.944 478.771 47.44C479.851 46.936 480.943 46.12 482.047 44.992V39.808C479.815 39.904 477.979 40.096 476.539 40.384C475.099 40.672 473.959 41.032 473.119 41.464C472.279 41.896 471.691 42.388 471.355 42.94C471.043 43.492 470.887 44.092 470.887 44.74C470.887 46.012 471.235 46.912 471.931 47.44C472.627 47.944 473.647 48.196 474.991 48.196ZM501.843 55V17.668H508.467C509.019 17.668 509.475 17.716 509.835 17.812C510.219 17.908 510.531 18.064 510.771 18.28C511.035 18.472 511.227 18.736 511.347 19.072C511.491 19.408 511.611 19.816 511.707 20.296L512.319 23.788C513.687 21.676 515.223 20.008 516.927 18.784C518.631 17.56 520.491 16.948 522.507 16.948C524.211 16.948 525.579 17.356 526.611 18.172L525.171 26.38C525.075 26.884 524.883 27.244 524.595 27.46C524.307 27.652 523.923 27.748 523.443 27.748C523.035 27.748 522.555 27.7 522.003 27.604C521.451 27.484 520.755 27.424 519.915 27.424C516.987 27.424 514.683 28.984 513.003 32.104V55H501.843ZM543.746 1.108V31.312H545.402C546.098 31.312 546.626 31.216 546.986 31.024C547.37 30.832 547.73 30.484 548.066 29.98L555.122 19.468C555.53 18.844 556.01 18.388 556.562 18.1C557.138 17.812 557.858 17.668 558.722 17.668H568.946L559.298 30.952C558.842 31.576 558.338 32.128 557.786 32.608C557.258 33.088 556.682 33.52 556.058 33.904C557.138 34.72 558.074 35.8 558.866 37.144L569.378 55H559.298C558.458 55 557.726 54.868 557.102 54.604C556.502 54.316 556.01 53.824 555.626 53.128L548.57 39.916C548.234 39.316 547.886 38.932 547.526 38.764C547.166 38.572 546.626 38.476 545.906 38.476H543.746V55H532.586V1.108H543.746ZM588.874 17.092C591.346 17.092 593.602 17.476 595.642 18.244C597.706 19.012 599.47 20.128 600.934 21.592C602.422 23.056 603.574 24.856 604.39 26.992C605.23 29.104 605.65 31.504 605.65 34.192C605.65 35.032 605.614 35.716 605.542 36.244C605.47 36.772 605.338 37.192 605.146 37.504C604.954 37.816 604.69 38.032 604.354 38.152C604.042 38.272 603.634 38.332 603.13 38.332H581.602C581.962 41.452 582.91 43.72 584.446 45.136C585.982 46.528 587.962 47.224 590.386 47.224C591.682 47.224 592.798 47.068 593.734 46.756C594.67 46.444 595.498 46.096 596.218 45.712C596.962 45.328 597.634 44.98 598.234 44.668C598.858 44.356 599.506 44.2 600.178 44.2C601.066 44.2 601.738 44.524 602.194 45.172L605.434 49.168C604.282 50.488 603.034 51.568 601.69 52.408C600.37 53.224 599.002 53.872 597.586 54.352C596.194 54.808 594.79 55.12 593.374 55.288C591.982 55.48 590.65 55.576 589.378 55.576C586.762 55.576 584.302 55.156 581.998 54.316C579.718 53.452 577.714 52.18 575.986 50.5C574.282 48.82 572.926 46.732 571.918 44.236C570.934 41.74 570.442 38.836 570.442 35.524C570.442 33.028 570.862 30.664 571.702 28.432C572.566 26.2 573.79 24.244 575.374 22.564C576.982 20.884 578.914 19.552 581.17 18.568C583.45 17.584 586.018 17.092 588.874 17.092ZM589.09 24.796C586.954 24.796 585.286 25.408 584.086 26.632C582.886 27.832 582.094 29.572 581.71 31.852H595.642C595.642 30.964 595.522 30.1 595.282 29.26C595.066 28.42 594.694 27.676 594.166 27.028C593.662 26.356 592.99 25.816 592.15 25.408C591.31 25 590.29 24.796 589.09 24.796ZM626.158 55.576C624.382 55.576 622.81 55.324 621.442 54.82C620.098 54.292 618.958 53.56 618.022 52.624C617.11 51.664 616.414 50.512 615.934 49.168C615.454 47.824 615.214 46.324 615.214 44.668V25.372H612.046C611.47 25.372 610.978 25.192 610.57 24.832C610.162 24.448 609.958 23.896 609.958 23.176V18.82L615.898 17.668L618.094 8.56C618.382 7.408 619.198 6.832 620.542 6.832H626.374V17.74H635.446V25.372H626.374V43.912C626.374 44.776 626.578 45.496 626.986 46.072C627.418 46.624 628.03 46.9 628.822 46.9C629.23 46.9 629.566 46.864 629.83 46.792C630.118 46.696 630.358 46.6 630.55 46.504C630.766 46.384 630.958 46.288 631.126 46.216C631.318 46.12 631.534 46.072 631.774 46.072C632.11 46.072 632.374 46.156 632.566 46.324C632.782 46.468 632.998 46.708 633.214 47.044L636.598 52.336C635.158 53.416 633.538 54.232 631.738 54.784C629.938 55.312 628.078 55.576 626.158 55.576ZM654.403 17.668V55H643.243V17.668H654.403ZM655.699 7.444C655.699 8.332 655.519 9.172 655.159 9.964C654.799 10.732 654.307 11.416 653.683 12.016C653.059 12.592 652.327 13.06 651.487 13.42C650.671 13.756 649.795 13.924 648.859 13.924C647.947 13.924 647.095 13.756 646.303 13.42C645.511 13.06 644.803 12.592 644.179 12.016C643.579 11.416 643.099 10.732 642.739 9.964C642.403 9.172 642.235 8.332 642.235 7.444C642.235 6.532 642.403 5.68 642.739 4.888C643.099 4.096 643.579 3.4 644.179 2.8C644.803 2.2 645.511 1.732 646.303 1.396C647.095 1.06 647.947 0.891999 648.859 0.891999C649.795 0.891999 650.671 1.06 651.487 1.396C652.327 1.732 653.059 2.2 653.683 2.8C654.307 3.4 654.799 4.096 655.159 4.888C655.519 5.68 655.699 6.532 655.699 7.444ZM664.414 55V17.668H671.326C672.022 17.668 672.598 17.824 673.054 18.136C673.534 18.448 673.87 18.916 674.062 19.54L674.71 21.7C675.43 21.028 676.174 20.404 676.942 19.828C677.71 19.252 678.526 18.772 679.39 18.388C680.278 17.98 681.226 17.668 682.234 17.452C683.266 17.212 684.382 17.092 685.582 17.092C687.622 17.092 689.422 17.452 690.982 18.172C692.566 18.868 693.898 19.852 694.978 21.124C696.058 22.372 696.874 23.872 697.426 25.624C697.978 27.352 698.254 29.236 698.254 31.276V55H687.094V31.276C687.094 29.452 686.674 28.036 685.834 27.028C684.994 25.996 683.758 25.48 682.126 25.48C680.902 25.48 679.75 25.744 678.67 26.272C677.59 26.8 676.558 27.508 675.574 28.396V55H664.414ZM720.355 17.02C721.939 17.02 723.427 17.176 724.819 17.488C726.235 17.8 727.543 18.244 728.743 18.82H740.011V22.888C740.011 23.512 739.831 24.004 739.471 24.364C739.135 24.724 738.547 25 737.707 25.192L734.971 25.804C735.307 26.884 735.475 28 735.475 29.152C735.475 31.024 735.079 32.704 734.287 34.192C733.519 35.68 732.451 36.952 731.083 38.008C729.739 39.04 728.143 39.844 726.295 40.42C724.447 40.972 722.467 41.248 720.355 41.248C719.179 41.248 718.075 41.176 717.043 41.032C716.227 41.512 715.819 42.064 715.819 42.688C715.819 43.312 716.143 43.768 716.791 44.056C717.463 44.32 718.339 44.512 719.419 44.632C720.499 44.728 721.735 44.8 723.127 44.848C724.519 44.872 725.935 44.956 727.375 45.1C728.815 45.22 730.231 45.436 731.623 45.748C733.015 46.06 734.251 46.564 735.331 47.26C736.411 47.956 737.275 48.892 737.923 50.068C738.595 51.22 738.931 52.696 738.931 54.496C738.931 56.176 738.523 57.82 737.707 59.428C736.891 61.036 735.691 62.464 734.107 63.712C732.523 64.96 730.579 65.956 728.275 66.7C725.971 67.468 723.331 67.852 720.355 67.852C717.427 67.852 714.895 67.576 712.759 67.024C710.647 66.472 708.883 65.74 707.467 64.828C706.075 63.94 705.043 62.908 704.371 61.732C703.699 60.556 703.363 59.332 703.363 58.06C703.363 56.404 703.867 55.012 704.875 53.884C705.883 52.732 707.263 51.832 709.015 51.184C708.175 50.632 707.503 49.924 706.999 49.06C706.495 48.196 706.243 47.104 706.243 45.784C706.243 45.232 706.339 44.656 706.531 44.056C706.723 43.432 707.023 42.832 707.431 42.256C707.839 41.68 708.355 41.128 708.979 40.6C709.603 40.072 710.347 39.604 711.211 39.196C709.267 38.164 707.731 36.796 706.603 35.092C705.499 33.388 704.947 31.408 704.947 29.152C704.947 27.28 705.343 25.6 706.135 24.112C706.927 22.6 708.007 21.328 709.375 20.296C710.767 19.24 712.399 18.436 714.271 17.884C716.143 17.308 718.171 17.02 720.355 17.02ZM728.635 56.368C728.635 55.768 728.443 55.288 728.059 54.928C727.699 54.568 727.195 54.28 726.547 54.064C725.923 53.848 725.179 53.692 724.315 53.596C723.475 53.5 722.563 53.428 721.579 53.38C720.595 53.332 719.575 53.296 718.519 53.272C717.463 53.224 716.419 53.14 715.387 53.02C714.691 53.5 714.115 54.04 713.659 54.64C713.227 55.216 713.011 55.876 713.011 56.62C713.011 57.148 713.119 57.628 713.335 58.06C713.575 58.492 713.983 58.864 714.559 59.176C715.135 59.488 715.903 59.728 716.863 59.896C717.847 60.088 719.083 60.184 720.571 60.184C722.179 60.184 723.499 60.088 724.531 59.896C725.563 59.704 726.379 59.44 726.979 59.104C727.603 58.768 728.035 58.36 728.275 57.88C728.515 57.424 728.635 56.92 728.635 56.368ZM720.355 34.372C722.203 34.372 723.535 33.916 724.351 33.004C725.191 32.068 725.611 30.868 725.611 29.404C725.611 27.892 725.191 26.704 724.351 25.84C723.535 24.976 722.203 24.544 720.355 24.544C718.507 24.544 717.163 24.976 716.323 25.84C715.507 26.704 715.099 27.892 715.099 29.404C715.099 30.124 715.195 30.784 715.387 31.384C715.603 31.984 715.927 32.512 716.359 32.968C716.791 33.4 717.331 33.748 717.979 34.012C718.651 34.252 719.443 34.372 720.355 34.372Z" fill="#7772F1"/>
</svg>
