<svg width="155" height="404" viewBox="0 0 155 404" fill="none" xmlns="http://www.w3.org/2000/svg">
<path d="M361.045 403.385C349.952 403.385 338.859 399.225 330.433 390.799L13.4381 73.8042C-3.41426 56.9518 -3.41426 29.5401 13.4381 12.6877C21.651 4.47486 32.5303 -0.00488281 44.0497 -0.00488281C55.569 -0.00488281 66.4484 4.47486 74.6612 12.6877L391.656 329.683C399.869 337.896 404.349 348.668 404.349 360.294C404.349 371.814 399.869 382.693 391.656 390.906C383.123 399.225 372.137 403.385 361.045 403.385ZM44.0497 2.12833C33.0636 2.12833 22.7176 6.39475 15.038 14.181C-0.96107 30.1801 -0.96107 56.3119 15.038 72.311L332.033 389.306C348.032 405.305 374.164 405.305 390.163 389.306C397.949 381.52 402.216 371.174 402.216 360.294C402.216 349.308 397.949 338.962 390.163 331.283L73.0613 14.181C65.3818 6.39475 55.0357 2.12833 44.0497 2.12833Z" fill="#00F0B5"/>
</svg>
