<svg width="78" height="78" viewBox="0 0 78 78" fill="none" xmlns="http://www.w3.org/2000/svg">
<g id="group">
<path id="Vector" d="M4.06001 41.0643C4.05602 48.2289 6.13948 55.2383 10.0541 61.2303C13.9687 67.2224 19.5437 71.9357 26.0932 74.7905C32.6428 77.6453 39.8813 78.517 46.9182 77.2984C53.9551 76.0798 60.4835 72.8241 65.7003 67.9317C70.917 63.0393 74.5947 56.7237 76.2808 49.7618C77.9668 42.7998 77.5878 35.4953 75.1903 28.7466C72.7928 21.998 68.4813 16.0997 62.7864 11.7772C57.0914 7.45482 50.2613 4.89684 43.1364 4.41797V41.0643H4.06001Z" fill="#00F0B5"/>
<path id="Vector_2" d="M0.0955544 36.7992H39.1719V0.113245C38.3847 0.0500615 37.5503 0.0263672 36.7316 0.0263672C31.9191 0.0263667 27.1538 0.977637 22.7079 2.82584C18.262 4.67404 14.2226 7.38296 10.8204 10.7978C7.41825 14.2127 4.71998 18.2667 2.87978 22.7281C1.03957 27.1895 0.093483 31.9709 0.0955544 36.7992Z" fill="#D7DADD"/>
</g>
</svg>
