<svg width="38" height="38" viewBox="0 0 38 38" fill="none" xmlns="http://www.w3.org/2000/svg">
<g id="Group">
<g id="Group_2">
<path id="Vector" d="M37.0312 18.3125C37.0174 18.3125 37.0036 18.3129 36.99 18.3136H19.6875V0.968749C19.6875 0.537343 19.3376 0.1875 18.9062 0.1875C13.8561 0.1875 9.10842 2.15414 5.53749 5.72499C1.96664 9.29592 0 14.0436 0 19.0937C0 24.1438 1.96664 28.8915 5.53749 32.4624C9.10842 36.0333 13.8561 37.9999 18.9062 37.9999C23.9563 37.9999 28.704 36.0333 32.2749 32.4624C35.8458 28.8915 37.8124 24.1438 37.8124 19.0937C37.8124 18.6622 37.4626 18.3125 37.0312 18.3125ZM18.9062 36.4374C9.34287 36.4374 1.5625 28.6571 1.5625 19.0937C1.5625 9.7924 8.92311 2.17773 18.125 1.76742V19.0948C18.125 19.355 18.2527 19.5849 18.4483 19.7268C18.4482 19.7271 18.4481 19.7273 18.448 19.7275L32.4738 29.885C29.2935 33.8753 24.3937 36.4374 18.9062 36.4374ZM33.3918 28.6206L21.317 19.8761H36.2325C36.0889 23.0953 35.0627 26.0885 33.3918 28.6206Z" fill="#7772F1"/>
</g>
</g>
</svg>
